<svg id="Layer_1" data-name="Layer 1" xmlns="http://www.w3.org/2000/svg" viewBox="0 0 94.28 94"><defs><style>.cls-1{fill:#010101;}</style></defs><path class="cls-1" d="M38.14,1.41l1.52,4.33a.66.66,0,0,0,.35.41l3.8,1.73a.77.77,0,0,1,0,1.36L40,11a.68.68,0,0,0-.35.41l-1.52,4.33a.62.62,0,0,1-1.19,0l-1.52-4.33a.67.67,0,0,0-.36-.41L31.28,9.24a.77.77,0,0,1,0-1.36l3.79-1.73a.64.64,0,0,0,.36-.41L37,1.41A.62.62,0,0,1,38.14,1.41Z" transform="translate(0 -0.2)"/><path class="cls-1" d="M89.61,40.34l1.13,3.21a.49.49,0,0,0,.26.3l2.82,1.28a.58.58,0,0,1,0,1L91,47.43a.46.46,0,0,0-.26.3l-1.13,3.21a.46.46,0,0,1-.88,0L87.6,47.73a.49.49,0,0,0-.26-.3l-2.82-1.29a.58.58,0,0,1,0-1l2.82-1.28a.52.52,0,0,0,.26-.3l1.13-3.21a.45.45,0,0,1,.88,0Z" transform="translate(0 -0.2)"/><ellipse class="cls-1" cx="68.65" cy="14.51" rx="1.43" ry="1.45"/><ellipse class="cls-1" cx="87.72" cy="5.2" rx="2.64" ry="2.68"/><path class="cls-1" d="M63.52,56.27A57.93,57.93,0,0,0,52.33,41c-1.53-1.55-3.1-3-4.68-4.34l-1.19-4.35,3,1,.05,0a8,8,0,0,0,7.95-2l3.11-3.16a8.19,8.19,0,0,0,2-8l-1.71-5.86a5.64,5.64,0,0,0-7-3.87A5.74,5.74,0,0,0,50,17.42l1.2,4.36-3-.87a7.94,7.94,0,0,0-7.93,2l-3.11,3.15a8,8,0,0,0-1.76,2.71c-5.44-2.16-8.36-1.14-9.9.27a5.94,5.94,0,0,0-2.32,2.61l0,0L.62,84.31A7.09,7.09,0,0,0,2,92.16a6.84,6.84,0,0,0,4.88,2,6.91,6.91,0,0,0,2.87-.63l52-22.69,0,0a6,6,0,0,0,3.32-4.37l0-.25c.69-2,.6-5.15-1.65-10ZM58.1,54.09a1.91,1.91,0,0,1,1.4.59,2,2,0,0,1,0,2.83,2,2,0,0,1-2.8,0,2,2,0,0,1,0-2.83A2,2,0,0,1,58.1,54.09ZM54.88,13.91a2,2,0,0,1,2.43,1.34L59,21.12A4.4,4.4,0,0,1,58,25.45l-1.41,1.43L55.67,24h0l-2.1-7.59v0A2,2,0,0,1,54.88,13.91Zm-7.75,10.6h0L52.41,26l1.08,3.5a4.3,4.3,0,0,1-2.9.16l-5.36-1.77-1-3.26a4.3,4.3,0,0,1,1.63-.32A4.51,4.51,0,0,1,47.13,24.51Zm-7.39,4.22,1.43-1.44.9,3h0l2.06,7.51v0a2,2,0,0,1-.16,1.5,1.93,1.93,0,0,1-3.1.45,1.89,1.89,0,0,1-.49-.83l-1.71-5.87A4.41,4.41,0,0,1,39.74,28.73ZM27.9,31.89a2.65,2.65,0,0,1,1.93-.59,13.1,13.1,0,0,1,5,1.33,8.64,8.64,0,0,0,.29,1.5L36.85,40a5.92,5.92,0,0,0,1.42,2.43,5.63,5.63,0,0,0,4,1.68,5.49,5.49,0,0,0,1.6-.24,5.61,5.61,0,0,0,3.33-2.69c.84.77,1.68,1.58,2.51,2.42a62.91,62.91,0,0,1,7.07,8.46,4.22,4.22,0,0,0-1.65,1,4.32,4.32,0,0,0,0,6,4.17,4.17,0,0,0,5.68.24c1.41,3.55,1.2,5.6.45,6.36s-3.32,1-7.72-1.1A53.51,53.51,0,0,1,39.45,54,54.21,54.21,0,0,1,29,39.72c-2.08-4.47-1.92-7-1.08-7.83ZM8.27,90.14l0,0a3.18,3.18,0,0,1-3.59-.65h0A3.27,3.27,0,0,1,4,85.87l0-.05L24.39,38.19a26.76,26.76,0,0,0,1.25,3.13A58,58,0,0,0,36.83,56.65,57.29,57.29,0,0,0,52,68a23.88,23.88,0,0,0,3.71,1.46Z" transform="translate(0 -0.2)"/><path class="cls-1" d="M90.22,16.8l-5.79-1.74a7.93,7.93,0,0,0-7.94,2l-3.11,3.15a8.22,8.22,0,0,0-2,8.05l0,0,1,3.05-4.45-1.25a5.65,5.65,0,0,0-7,3.88,5.76,5.76,0,0,0,1.43,5.67,5.65,5.65,0,0,0,2.39,1.44l5.79,1.74a8.33,8.33,0,0,0,2.31.34,7.93,7.93,0,0,0,5.64-2.36l3.1-3.15a8.18,8.18,0,0,0,2-8l-.86-3.08L87,27.79a5.54,5.54,0,0,0,4.29-.47A5.67,5.67,0,0,0,94,23.92a5.74,5.74,0,0,0-3.82-7.12ZM78.54,25.35,80,30.68v0a4.51,4.51,0,0,1-.13,2.93l-3.22-1L74.93,27.2a4.54,4.54,0,0,1,.16-2.94Zm-7,13.91L65.8,37.53A1.91,1.91,0,0,1,65,37a2,2,0,0,1-.49-2,2,2,0,0,1,1.87-1.42,1.81,1.81,0,0,1,.56.08h0l7.4,2.08h0l3,.92-1.43,1.44a4.27,4.27,0,0,1-4.28,1.07ZM90.5,22.85A2,2,0,0,1,89.56,24a1.94,1.94,0,0,1-1.49.16h0l-7.49-2.13h0l-2.84-.89,1.41-1.43a4.26,4.26,0,0,1,4.28-1.07l5.79,1.73a2,2,0,0,1,1.32,2.46Z" transform="translate(0 -0.2)"/><path class="cls-1" d="M70.34,8.7a4.16,4.16,0,0,0,3-1.24,4.32,4.32,0,0,0,0-6,4.17,4.17,0,0,0-5.94,0,4.3,4.3,0,0,0,0,6A4.15,4.15,0,0,0,70.34,8.7ZM68.94,3a2,2,0,0,1,1.4-.59,2,2,0,0,1,1.4.59,2,2,0,0,1,0,2.84,2,2,0,0,1-2.8,0,2,2,0,0,1,0-2.84Z" transform="translate(0 -0.2)"/><path class="cls-1" d="M74.21,52.52a4.3,4.3,0,0,0,0,6,4.15,4.15,0,0,0,5.94,0,4.29,4.29,0,0,0,0-6A4.17,4.17,0,0,0,74.21,52.52Zm4.37,4.42a2,2,0,0,1-2.8,0,2,2,0,0,1,0-2.83,2,2,0,0,1,2.8,0,2,2,0,0,1,0,2.83Z" transform="translate(0 -0.2)"/><path class="cls-1" d="M18.66,67.48A1.86,1.86,0,0,1,17,64.86l2.34-5.51a1.84,1.84,0,0,1,2.43-1,1.88,1.88,0,0,1,1,2.46l-2.34,5.52a1.84,1.84,0,0,1-1.7,1.13Z" transform="translate(0 -0.2)"/><path class="cls-1" d="M23.62,55.8a1.75,1.75,0,0,1-.73-.16,1.87,1.87,0,0,1-1-2.46l.71-1.68a1.84,1.84,0,0,1,2.43-1A1.88,1.88,0,0,1,26,53l-.72,1.68a1.85,1.85,0,0,1-1.7,1.14Z" transform="translate(0 -0.2)"/></svg>