<?xml version="1.0" encoding="utf-8"?>
<!-- Generator: Adobe Illustrator 26.0.0, SVG Export Plug-In . SVG Version: 6.00 Build 0)  -->
<svg version="1.1" id="Layer_1" xmlns="http://www.w3.org/2000/svg" xmlns:xlink="http://www.w3.org/1999/xlink" x="0px" y="0px"
	 viewBox="0 0 22.8 16.3" style="enable-background:new 0 0 22.8 16.3;" xml:space="preserve">
<style type="text/css">
	.st0{fill:#FFFFFF;stroke:#FFFFFF;stroke-width:0.75;stroke-miterlimit:10;}
</style>
<path class="st0" d="M20.3,0.6H2.6c-1,0-1.9,0.8-1.9,1.9v11.4c0,1,0.9,1.9,1.9,1.9h17.7c1,0,1.9-0.8,1.9-1.9V2.5
	C22.2,1.4,21.3,0.6,20.3,0.6z M20,1.9l-7.2,7.2c-0.4,0.4-0.8,0.5-1.3,0.6c-0.5,0-1-0.2-1.3-0.6L2.9,1.9H20z M2,13.6V2.7l5.4,5.4
	L2,13.6z M2.9,14.4L8.4,9L9.3,10c1.2,1.2,3.2,1.2,4.4,0L14.7,9l5.4,5.4L2.9,14.4z M21,13.6l-5.4-5.4L21,2.7V13.6z"/>
</svg>
