<svg id="Layer_1" data-name="Layer 1" xmlns="http://www.w3.org/2000/svg" viewBox="0 0 20.58 20.58"><defs><style>.cls-1{fill:#fff;}</style></defs><g id="Page-1"><g id="_003---Call" data-name="003---Call"><path id="Shape" class="cls-1" d="M8.52,12.06A8.36,8.36,0,0,1,6,7.34a.72.72,0,0,1,.21-.59L7.81,5.16a.72.72,0,0,0,.1-.88L5.38.35A.71.71,0,0,0,4.46.1L.39,2a.71.71,0,0,0-.39.7A19.68,19.68,0,0,0,6,14.59a19.61,19.61,0,0,0,11.88,6,.7.7,0,0,0,.71-.39l1.91-4.06a.72.72,0,0,0-.26-.92l-3.93-2.53a.71.71,0,0,0-.87.1l-1.59,1.59a.7.7,0,0,1-.59.2,8.32,8.32,0,0,1-4.72-2.5Z"/><path id="Shape-2" data-name="Shape" class="cls-1" d="M16.32,11a.71.71,0,0,1-.71-.71A5.32,5.32,0,0,0,10.29,5a.71.71,0,0,1,0-1.42A6.74,6.74,0,0,1,17,10.29.71.71,0,0,1,16.32,11Z"/><path id="Shape-3" data-name="Shape" class="cls-1" d="M19.87,11a.71.71,0,0,1-.71-.71,8.87,8.87,0,0,0-8.87-8.87.71.71,0,0,1,0-1.42A10.31,10.31,0,0,1,20.58,10.29a.72.72,0,0,1-.71.71Z"/></g></g></svg>