<svg id="Layer_1" data-name="Layer 1" xmlns="http://www.w3.org/2000/svg" viewBox="0 0 102.22 102.47"><defs><style>.cls-1{fill:#010101;}</style></defs><path class="cls-1" d="M53.42,100.45a2,2,0,0,1-2.06,2h0a2,2,0,1,1,2.07-2Zm47.51-59.21A69.86,69.86,0,0,1,84.72,54.46c3,10.31-.3,20.07-7.73,26.22a25.3,25.3,0,0,1-10.53,5.2,4.18,4.18,0,0,0,2,.77L80.22,88a2,2,0,0,1,1.12,3.52,46,46,0,0,1-20.32,10,2,2,0,1,1-.88-4,41.58,41.58,0,0,0,14.57-6.11L68,90.66a8.14,8.14,0,0,1-7.33-8V74.26a16.84,16.84,0,0,1-18.59,0v8.38a8.14,8.14,0,0,1-7.32,8L28,91.41a41.52,41.52,0,0,0,14.54,6.11,2,2,0,1,1-.87,3.94,45.84,45.84,0,0,1-20.31-10A2,2,0,0,1,22.52,88l11.76-1.31a4.2,4.2,0,0,0,2.48-1.18,25.21,25.21,0,0,1-10.64-6.19A24.37,24.37,0,0,1,19,58.58a71.68,71.68,0,0,1-16.49-10,6,6,0,0,1,2-10.39l20.08-6.63V26.22C24.52,11.76,36.56,0,51.37,0S78.22,11.76,78.22,26.22v2.2l19,2.81a6,6,0,0,1,3.7,10Zm-72.28-15V30c4.83-1.91,13.37-5.17,23.83-5.7a61.83,61.83,0,0,1,21.6,3.17V25.85A22.5,22.5,0,0,0,51.37,4C38.84,4,28.65,14,28.65,26.22Zm-18,14.18a48.63,48.63,0,0,0,57.9-3.57,26.84,26.84,0,0,1,7.31-4.68c-8.26-2.26-14.38-4.22-23.15-3.78-10.15.51-18.43,4.06-23,5.62-5.54,1.89-19,6.41-19,6.41ZM21.55,50A52.18,52.18,0,0,1,6.4,42.42a1.11,1.11,0,0,0-1.48.1,2,2,0,0,0,.19,2.95,66.64,66.64,0,0,0,14.76,9.09C20,54.19,21.55,50,21.55,50ZM37.94,70.72A45.68,45.68,0,0,1,26.32,51.21L25.54,51l-1.41,3.8A20.3,20.3,0,0,0,29,76.42a20.93,20.93,0,0,0,8.9,5.18ZM67.68,60.6a89.08,89.08,0,0,0-1.36-17,52.64,52.64,0,0,1-29.07,8.75A51.83,51.83,0,0,1,30.89,52a41.85,41.85,0,0,0,12.2,18,12.67,12.67,0,0,0,16.55,0A42.13,42.13,0,0,0,67.68,60.6ZM81,56.48,75.44,36.7A32.65,32.65,0,0,0,70,40.9a87.8,87.8,0,0,1,1.81,17.7v10a2.07,2.07,0,0,1-4.13,0v-1c-.91,1.09-1.88,2.15-2.89,3.16v11.4a21.18,21.18,0,0,0,9.53-4.5A20.38,20.38,0,0,0,81,56.48ZM96.62,35.22l-6.24-.92a24.5,24.5,0,0,0-11.12.75L83.58,50.4A65.57,65.57,0,0,0,97.85,38.56a2,2,0,0,0-1.23-3.34Z" transform="translate(-0.26)"/></svg>