<?xml version="1.0" encoding="utf-8"?>
<!-- Generator: Adobe Illustrator 25.4.1, SVG Export Plug-In . SVG Version: 6.00 Build 0)  -->
<svg version="1.1" id="Layer_1" xmlns="http://www.w3.org/2000/svg" xmlns:xlink="http://www.w3.org/1999/xlink" x="0px" y="0px"
	 viewBox="0 0 104 102.5" style="enable-background:new 0 0 104 102.5;" xml:space="preserve">
<style type="text/css">
	.st0{fill:#010101;}
</style>
<path class="st0" d="M20.6,60.2c-4.6-3.9-9.2-7.5-13.4-11.4c-5.6-5.1-8.3-11.2-6.7-19.1c1.2-6,3.4-11.2,9.1-13.9
	c3.6-1.8,7.5-3.1,11.4-3.8c7.5-1.2,15.2-1.4,22.7-0.7c9.7,0.9,18.2,4.9,25.7,10.9c0.8,0.8,1.6,1.7,2.2,2.7c3.3-0.1,6.5-0.3,9.8-0.3
	c8.9,0.2,15.3,4.5,19.4,12.3c1.8,3.5,2.9,7.3,3.1,11.3c0.3,3.7-1,7-2.8,10.1c-3.3,6.1-7.9,11.4-13.4,15.7c-4.4,3.4-8.7,6.9-13.6,9.8
	c-8.9,5.2-18.9,8.4-29.1,9.5c-4,0.4-8.1,0.5-12.1,0.6c-5.7,0.1-10.1-2.1-12.7-7.4c-1.6-3.1-3-6.2-4.1-9.5
	c-1.6-5.1-0.6-10.6,2.8-14.7L20.6,60.2L20.6,60.2z M90.3,36.7c0,1-0.5,2.1,1.2,2.7c-0.1-1.1-0.1-2-0.2-3.1L90.3,36.7
	c0.1-0.9,0.6-2.1-0.9-2.8c-0.9,3-0.9,3-0.1,4.4L90.3,36.7z M76.9,34.3c0-0.5,0-1-0.1-2.1l-2.2,1.7c-0.5-1.2,0-1.8,1.1-2.2
	c4.1-1.3,8.6-1.4,12.8-0.4c4.4,1.2,5.9,3.5,5.7,8.1c0,0.8-0.1,1.5-0.3,2.3c-0.7,2.8-1.6,5.5-2.3,8.3c-0.7,2.8-2.3,5.4-4.6,7.2
	c-2.4,2-4.8,3.9-7.3,5.6c-7.3,5.2-15.5,8.9-23.5,12.9c-6.5,3.3-13.7,5.3-21,5.6c-3.5,0.3-7-0.3-10.1-1.8c-4-1.9-5.3-5.1-3.8-9.4
	l2.2,5.9l0.4-0.1c-0.4-2.6-0.8-5.3-1.2-7.9c1.8,3,1.6,6.6,3.5,9.6c0.3-0.7,0.4-1.4,0.4-2.1c-0.2-1.2-0.6-2.4-0.9-3.6
	c-0.3-1.9-0.6-3.8-0.8-5.7l0.6-0.1c0.6,2.4,1.2,4.9,1.9,7.8c2-3.4,0.3-6.3,0.6-9.2l-5.3-3.3c-2.8,3-4.6,6.1-4.8,10.2
	c-0.2,5.1,2.2,9,4.6,13.1c0.5,0.8,1.1,1.5,1.7,2.2l0.6-1.4c1,2.2,1.6,4.8,4.9,4.5l-1.8-4.8c3.2,5.3,3.2,5.3,5,5.1
	c-0.1-0.7-0.2-1.5-0.3-2.2l-0.1,0.1c0.4,0.5,0.8,1,1.1,1.6c0.4,0.8,1.3,1.2,2.2,1c2.3-0.3,4.6-0.2,7-0.5l-1.6-4
	c0.6,0.5,1.1,1.1,1.4,1.8c0.7,1.4,1.4,2.3,3.3,1.8c4.9-1.3,10.1-1.8,14.8-3.5c10.6-3.8,20.3-9.9,28.4-17.8c3.6-3.6,6.7-7.7,9.1-12.2
	c1-1.8,1.7-3.9,1.9-6c0.4-5.7-1.2-11.4-4.6-16c-2.2-3.1-5.4-5.4-9-6.4c-4.8-1.4-10-1.5-14.8-0.2c-5.2,1.2-9.8,3.9-14.7,5.9
	c-8.6,3.6-16.2,8.8-23.6,14.3c-0.5,0.4-0.9,0.8-1.7,1.5l5.1,2.5c0.2-1,0.3-1.7,0.4-2.4l-2,0.2c2.1-3.4,9.6-7.8,13.7-8.3
	c1.4,3.2,0,6.5,0.2,9.8c1.7-0.5,1.6-1.8,1.8-2.9c0.5-2.5,0.9-5,1.3-7.5l0.5,0.1c-0.2,2.7-0.5,5.4-0.8,8.6l2.4-1.6
	c-0.1-2.6,0.5-5.1,1.8-7.4c-0.2,2.1-0.4,4.3-0.7,7c5-3.3,10-4.8,15.1-6.3c0.7-0.2,1.3-1,1.9-1.6c1.7,0.6,2.2,0.5,2.9-0.9
	c0.6-1.4,1.2-3,1.8-4.5c-0.3,1.6-0.6,3.1-1,5.3l2.4-1.6l1.2,0.6l2-6.3c-2.1-0.1-3.9-0.1-4.7,2.1L76.9,34.3z M45.4,54.9
	c1.4-1,2.3-2.6,2.3-4.4c0.3-2.8,0.8-5.6,1.2-8.4l-0.6-0.3l-7.8,4.8c-0.2,1.9-0.5,3.8-0.7,5.7c-0.1,1.1,0.5,1.5,1.5,1.4
	c0.4-2.4,0.8-4.7,1.2-7l0.5,0.1c-0.2,2.5-0.4,5-0.6,7.5c0.8,0.3,1.5,0.5,2.1,0.7C44.9,55.1,45.2,54.9,45.4,54.9L45.4,54.9L45.4,54.9
	z M83.3,46.6c-0.1-1.1-0.1-2.1-0.2-3.3c2.2,1.4,3.4,4.2,2.9,6.4c-0.6,2.5-2.1,4.6-4.2,5.9c-4.5,3.1-9.8,4.9-15.3,5.4
	c-10.3,0.8-19.9-1.5-29.2-5.4c-6.4-2.7-12-6.6-17.4-10.7c-3.9-2.7-7.1-6.2-9.6-10.3c-2.1-3.8-1.7-7.7,0.2-11.3c1.4-2.6,4.2-4,6.9-5
	l0.6,0.4c-0.9,2.9-1.9,5.9-2.8,8.8c3-1.3,2.6-4.9,5.1-6.9l-2.2,6.5c1.5,0.7,1.9-0.1,2.3-1.1c0.7-1.8,1.5-3.5,2.2-5.2l0.6,0.2
	c-0.7,2-1.3,4-2,6.1c1.4,0.5,1.7-0.2,2.1-1c1-2.2,2.1-4.3,3.2-6.5l0.5,0.2l-2.9,7.4c2.4,0.4,2.2-1.5,2.8-2.5c0.7-1.1,1.4-2.3,2-3.5
	l0.5,0.2l-2.3,5.9c0.2,0.1,0.5,0.2,0.7,0.4c1.7-2.7,3.4-5.4,5.1-8.1l0.6,0.3c-1.2,2.4-2.5,4.8-3.7,7.2c0.3,0.2,0.4,0.4,0.5,0.5
	c0.4,0.1,0.7,0.1,1.1,0.1c0.8-3,2.6-5.7,5-7.6c-1.3,2.7-2.5,5.1-3.7,7.6c6.9,1.4,13.7,2.4,20.1,5.3L65,27.4
	c-2.9-2.2-6.2-3.9-9.6-5.1C52,21,48.6,20,45.1,18.9c4.2-1.2,17.1,3.9,20.6,8.1c0.5-0.1,0.9-0.3,1.4-0.4c0.4-0.2,0.8-0.4,1.2-0.7
	c-0.3-0.4-0.4-0.6-0.6-0.8c-0.3-0.3-0.5-0.6-0.8-0.8C58.3,17.7,48.7,14,37.8,14.1c-2,0-4,0-6.1,0c-3.7,0-7.5,0.2-11.2,0.7
	c-4,0.6-7.9,1.9-11.4,3.9c-1.5,0.8-2.5,2.1-3,3.6c-0.7,2.8-1.4,5.6-2,8.4c-1.5,6.3,1,11.4,5.4,15.6c3.6,3.4,7.6,6.5,11.4,9.8
	c7.4,6.3,16.3,9.2,25.4,11.6l2.3-1.9l0.2,0.3l-1.7,1.8c2,0.8,2,0.8,3,0s1.7-1.9,3.6-2.4l-3.3,3.8c2.5,0.9,3.4-1.3,5.5-2l-1.5,2.2
	c1.3,1,2.3,0.9,3.3-0.3c1.2-1.4,2.5-2.7,3.8-4c0.5-0.4,1-0.8,1.5-1.2l0.3,0.4l-4.8,5.5c1.2,0.9,1.9,0.2,2.5-0.4
	c1.7-1.7,3.3-3.5,5-5.2c0.6-0.6,1.3-1.2,1.9-1.8l0.4,0.4l-3,4c8.3-3.3,15.7-8.3,22-14.6c-0.8-3.9,0.4-8-2.9-11.1
	c-4,0.1-8,1-11.6,2.8c1.9,0.8,2.8,3.2,5.1,1.8c-1,2.2,1.2,3.3,1.5,5.3l1.9-1.7l-1.5,4c1.4-1.1,2.3-2.4,3.5-3.5S84.4,47.8,83.3,46.6
	L83.3,46.6z M29.4,47.8c5.6-5.4,12.6-8.6,19.4-12.7c-0.4-0.3-0.9-0.5-1.4-0.7c-9-2.7-18.4-4.3-27.8-4.5c-2.8,0-5.5,0.6-8,1.8
	C13.7,36.3,20.8,42.8,29.4,47.8z M47.9,56c9.4,2.5,18.8,3.2,28.2,0.1c0.7-5.1-2.2-8-5.7-10.5c-0.8-0.6-1.9-0.8-2.9-0.5
	C60.2,47.3,53.9,51.2,47.9,56z M29.6,78.8c8.9,0.1,17.6-2,25.5-6.1c-0.7-0.3-1.4-0.6-2.2-0.8c-1.9-0.4-3.8-0.7-5.6-1.1
	c-3.3-0.9-6.6-1.9-10-2.8c-1-0.3-2-0.5-2.9,0.5C32.1,71.5,30,74.5,29.6,78.8z M10.9,29.1c1-2.2,1.8-3.9,2.6-5.6l0.4,0.2l-1.9,5.6
	c1-0.5,1.8-0.7,1.9-1c1-2.6,1.9-5.3,3-8.2C11.7,22.5,10.3,24.5,10.9,29.1z M86.8,34.3c-0.2,1.2-0.4,2.3-0.6,3.4l0.6,0.2
	c1.3-1.1,1.1-2.9,1.9-4.6L85,32.4c-0.5,1.9-1,3.6-1.6,5.5C86.1,37.8,85.2,35.3,86.8,34.3z M80.8,38.2l0.7,0.2c2-1.5,2-3.8,2.7-6.6
	c-1,0.5-1.9,0.6-2,1C81.6,34.6,81.2,36.4,80.8,38.2L80.8,38.2z M28.7,64.9c0.3,2,0.5,3.4,0.8,5.3l3.2-3.7L28.7,64.9z M90.1,46.4
	c0.3-1.5,0.6-2.5,0.9-3.6l-3.8-1.7L90.1,46.4z M38.7,52.7c0.2-1.6,0.5-3.2,0.8-5.1C37.2,49,37.1,50,38.7,52.7z"/>
<path class="st0" d="M38.1,73.8c0.4,1.1,0.8,2.1,1.3,3.2l-0.5,0.2c-0.4-1.1-0.8-2.2-1.2-3.2L38.1,73.8z"/>
<path class="st0" d="M35.1,74.7c0.2,0.5,0.5,1,0.8,1.6l-0.3,0.2c-0.2-0.5-0.5-1.1-0.7-1.6C34.8,74.8,35.1,74.7,35.1,74.7z"/>
<path class="st0" d="M32.5,77.1l-1.3-1.9l0.6-0.2C32,75.6,32.2,76.4,32.5,77.1L32.5,77.1z"/>
<path class="st0" d="M73.5,25.6l-1.2,3L73.5,25.6z"/>
<path class="st0" d="M74.7,22.8l-1.2,3L74.7,22.8z"/>
<path class="st0" d="M45.5,43.9c-0.6-3-0.2-6.2,1.2-8.9c-0.2,1.5-0.3,3-0.5,4.4S45.7,42.4,45.5,43.9L45.5,43.9z"/>
</svg>
