<svg id="Layer_1" data-name="Layer 1" xmlns="http://www.w3.org/2000/svg" viewBox="0 0 773.01 172.26"><defs><style>.cls-1{font-size:81.01px;font-family:STIXGeneral-Regular, STIXGeneral;letter-spacing:0.1em;}.cls-1,.cls-4{fill:#1d1d1b;}.cls-2{letter-spacing:0.08em;}.cls-3{letter-spacing:0.1em;}.cls-4{font-size:32.07px;font-family:Charter-Roman, Charter;letter-spacing:0.4em;}.cls-5{fill:none;stroke:#1d1d1b;stroke-width:7px;}.cls-5,.cls-6{stroke-miterlimit:10;}.cls-6,.cls-7{fill:#333;}.cls-6{stroke:#333;stroke-width:0.25px;}</style></defs><text class="cls-1" transform="translate(273.9 85.83)">OPTICMI<tspan class="cls-2" x="389.82" y="0">S</tspan><tspan class="cls-3" x="441.51" y="0">T</tspan></text><text class="cls-4" transform="translate(281.57 139.19)">photography</text><polygon class="cls-5" points="120.52 3.5 51.97 3.5 3.5 51.9 3.5 120.36 51.97 168.76 120.52 168.76 168.99 120.36 168.99 51.9 120.52 3.5"/><path class="cls-6" d="M14.47,133.61,65,194.09l-31.39,4.74L14.43,180.07Q14.45,156.84,14.47,133.61Z" transform="translate(-0.84 -62.22)"/><path class="cls-6" d="M37.38,153.72,14.47,126.86v-8.35l42.17-42.3h9.51Z" transform="translate(-0.84 -62.22)"/><path class="cls-6" d="M69.47,76.21l47.59-.07,20,20.23L58.88,109.45Z" transform="translate(-0.84 -62.22)"/><path class="cls-6" d="M159.17,168.14l-54.23-63,35.34-5.17,19.39,19.52Z" transform="translate(-0.84 -62.22)"/><path class="cls-6" d="M159.36,174v5.5l-42.55,42.06H105.07l28.26-77.32Z" transform="translate(-0.84 -62.22)"/><path class="cls-6" d="M101.49,222.61l12.64-33.18L36.17,202l20.6,20.61Z" transform="translate(-0.84 -62.22)"/><path class="cls-7" d="M231.84,65.46v164.8a1.25,1.25,0,0,0,2.5,0V65.46a1.25,1.25,0,0,0-2.5,0Z" transform="translate(-0.84 -62.22)"/></svg>